<svg width="15" height="19" viewBox="0 0 15 19" fill="none" xmlns="http://www.w3.org/2000/svg">
<path d="M6.64685 17.8984C6.96326 18.3906 7.70154 18.3906 8.01794 17.8984C13.1508 10.5156 14.1 9.74219 14.1 7C14.1 3.27344 11.0765 0.25 7.34998 0.25C3.58826 0.25 0.599976 3.27344 0.599976 7C0.599976 9.74219 1.51404 10.5156 6.64685 17.8984ZM7.34998 9.8125C5.76794 9.8125 4.53748 8.58203 4.53748 7C4.53748 5.45312 5.76794 4.1875 7.34998 4.1875C8.89685 4.1875 10.1625 5.45312 10.1625 7C10.1625 8.58203 8.89685 9.8125 7.34998 9.8125Z" fill="#FFB30E"/>
</svg>
